HIERARCHY
ROOT Root
{
  OFFSET 0.0 0.0 0.0
  CHANNELS 6 Xposition Yposition Zposition Zrotation Yrotation Xrotation
  JOINT Hips
  {
    OFFSET 0.0 100.0 0.0
    CHANNELS 6 Xposition Yposition Zposition Zrotation Yrotation Xrotation
    JOINT Spine1
    {
      OFFSET 5.003913 -0.037094 -0.013727
      CHANNELS 3 Zrotation Yrotation Xrotation
      JOINT Spine2
      {
        OFFSET 7.125363 -1e-06 0.0
        CHANNELS 3 Zrotation Yrotation Xrotation
        JOINT Chest
        {
          OFFSET 7.594027 1e-06 0.0
          CHANNELS 3 Zrotation Yrotation Xrotation
          JOINT Neck1
          {
            OFFSET 26.313086 -0.460272 -0.181672
            CHANNELS 3 Zrotation Yrotation Xrotation
            JOINT Neck2
            {
              OFFSET 8.045911 0.0 0.0
              CHANNELS 3 Zrotation Yrotation Xrotation
              JOINT Head
              {
                OFFSET 6.432774 0.0 0.0
                CHANNELS 3 Zrotation Yrotation Xrotation
                JOINT HeadEnd
                {
                  OFFSET 16.169773 0.06451 0.00362
                  CHANNELS 3 Zrotation Yrotation Xrotation
                }
                JOINT Jaw
                {
                  OFFSET 0.108741 3.12938 0.002639
                  CHANNELS 3 Zrotation Yrotation Xrotation
                }
                JOINT LeftEye
                {
                  OFFSET 4.45173 8.166359 3.206392
                  CHANNELS 3 Zrotation Yrotation Xrotation
                }
                JOINT RightEye
                {
                  OFFSET 4.436895 8.135758 -3.222429
                  CHANNELS 3 Zrotation Yrotation Xrotation
                }
              }
            }
          }
          JOINT LeftShoulder
          {
            OFFSET 23.218927 5.195579 1.621656
            CHANNELS 3 Zrotation Yrotation Xrotation
            JOINT LeftArm
            {
              OFFSET 15.902118 2e-06 -2e-06
              CHANNELS 3 Zrotation Yrotation Xrotation
              JOINT LeftForeArm
              {
                OFFSET 28.739307 0.0 -1e-06
                CHANNELS 3 Zrotation Yrotation Xrotation
                JOINT LeftHand
                {
                  OFFSET 27.093981 -4e-06 0.0
                  CHANNELS 3 Zrotation Yrotation Xrotation
                  JOINT LeftHandThumb1
                  {
                    OFFSET 2.276781 3.380274 0.83384
                    CHANNELS 3 Zrotation Yrotation Xrotation
                    JOINT LeftHandThumb2
                    {
                      OFFSET 4.705309 -1e-06 -1e-06
                      CHANNELS 3 Zrotation Yrotation Xrotation
                      JOINT LeftHandThumb3
                      {
                        OFFSET 2.798515 0.0 3e-06
                        CHANNELS 3 Zrotation Yrotation Xrotation
                        JOINT LeftHandThumbEnd
                        {
                          OFFSET 3.180793 4e-06 -4e-06
                          CHANNELS 3 Zrotation Yrotation Xrotation
                        }
                      }
                    }
                  }
                  JOINT LeftHandIndex1
                  {
                    OFFSET 3.247786 2.352677 0.137192
                    CHANNELS 3 Zrotation Yrotation Xrotation
                    JOINT LeftHandIndex2
                    {
                      OFFSET 6.367095 1e-06 0.0
                      CHANNELS 3 Zrotation Yrotation Xrotation
                      JOINT LeftHandIndex3
                      {
                        OFFSET 3.662364 0.0 0.0
                        CHANNELS 3 Zrotation Yrotation Xrotation
                        JOINT LeftHandIndex4
                        {
                          OFFSET 2.329242 4e-06 -4e-06
                          CHANNELS 3 Zrotation Yrotation Xrotation
                          JOINT LeftHandIndexEnd
                          {
                            OFFSET 2.767823 1e-06 0.0
                            CHANNELS 3 Zrotation Yrotation Xrotation
                          }
                        }
                      }
                    }
                  }
                  JOINT LeftHandMiddle1
                  {
                    OFFSET 3.163612 0.945023 -0.406112
                    CHANNELS 3 Zrotation Yrotation Xrotation
                    JOINT LeftHandMiddle2
                    {
                      OFFSET 6.276789 3e-06 0.0
                      CHANNELS 3 Zrotation Yrotation Xrotation
                      JOINT LeftHandMiddle3
                      {
                        OFFSET 4.35652 -1e-06 4e-06
                        CHANNELS 3 Zrotation Yrotation Xrotation
                        JOINT LeftHandMiddle4
                        {
                          OFFSET 2.996877 0.0 8e-06
                          CHANNELS 3 Zrotation Yrotation Xrotation
                          JOINT LeftHandMiddleEnd
                          {
                            OFFSET 2.323256 3e-06 -4e-06
                            CHANNELS 3 Zrotation Yrotation Xrotation
                          }
                        }
                      }
                    }
                  }
                  JOINT LeftHandRing1
                  {
                    OFFSET 2.882606 -0.309162 0.107445
                    CHANNELS 3 Zrotation Yrotation Xrotation
                    JOINT LeftHandRing2
                    {
                      OFFSET 6.033198 0.0 4e-06
                      CHANNELS 3 Zrotation Yrotation Xrotation
                      JOINT LeftHandRing3
                      {
                        OFFSET 4.350578 3e-06 0.0
                        CHANNELS 3 Zrotation Yrotation Xrotation
                        JOINT LeftHandRing4
                        {
                          OFFSET 2.651321 2e-06 -7e-06
                          CHANNELS 3 Zrotation Yrotation Xrotation
                          JOINT LeftHandRingEnd
                          {
                            OFFSET 1.937663 1e-06 -4e-06
                            CHANNELS 3 Zrotation Yrotation Xrotation
                          }
                        }
                      }
                    }
                  }
                  JOINT LeftHandPinky1
                  {
                    OFFSET 2.865315 -1.525436 0.575687
                    CHANNELS 3 Zrotation Yrotation Xrotation
                    JOINT LeftHandPinky2
                    {
                      OFFSET 5.54936 1e-06 -8e-06
                      CHANNELS 3 Zrotation Yrotation Xrotation
                      JOINT LeftHandPinky3
                      {
                        OFFSET 3.070974 0.0 -4e-06
                        CHANNELS 3 Zrotation Yrotation Xrotation
                        JOINT LeftHandPinky4
                        {
                          OFFSET 1.549672 1e-06 0.0
                          CHANNELS 3 Zrotation Yrotation Xrotation
                          JOINT LeftHandPinkyEnd
                          {
                            OFFSET 1.952123 0.0 0.0
                            CHANNELS 3 Zrotation Yrotation Xrotation
                          }
                        }
                      }
                    }
                  }
                }
              }
            }
          }
          JOINT RightShoulder
          {
            OFFSET 23.161716 5.296122 -1.380114
            CHANNELS 3 Zrotation Yrotation Xrotation
            JOINT RightArm
            {
              OFFSET -16.027195 -2e-06 1.1e-05
              CHANNELS 3 Zrotation Yrotation Xrotation
              JOINT RightForeArm
              {
                OFFSET -28.736639 4e-06 2e-06
                CHANNELS 3 Zrotation Yrotation Xrotation
                JOINT RightHand
                {
                  OFFSET -27.133619 6e-06 0.0
                  CHANNELS 3 Zrotation Yrotation Xrotation
                  JOINT RightHandThumb1
                  {
                    OFFSET -2.274328 -3.351035 -0.83067
                    CHANNELS 3 Zrotation Yrotation Xrotation
                    JOINT RightHandThumb2
                    {
                      OFFSET -4.703594 -3e-06 2e-06
                      CHANNELS 3 Zrotation Yrotation Xrotation
                      JOINT RightHandThumb3
                      {
                        OFFSET -2.794935 -4e-06 -3e-06
                        CHANNELS 3 Zrotation Yrotation Xrotation
                        JOINT RightHandThumbEnd
                        {
                          OFFSET -3.183852 4e-06 1e-06
                          CHANNELS 3 Zrotation Yrotation Xrotation
                        }
                      }
                    }
                  }
                  JOINT RightHandIndex1
                  {
                    OFFSET -3.253496 -2.33755 -0.127667
                    CHANNELS 3 Zrotation Yrotation Xrotation
                    JOINT RightHandIndex2
                    {
                      OFFSET -6.344434 0.0 0.0
                      CHANNELS 3 Zrotation Yrotation Xrotation
                      JOINT RightHandIndex3
                      {
                        OFFSET -3.654871 0.0 -8e-06
                        CHANNELS 3 Zrotation Yrotation Xrotation
                        JOINT RightHandIndex4
                        {
                          OFFSET -2.327586 -1e-06 0.0
                          CHANNELS 3 Zrotation Yrotation Xrotation
                          JOINT RightHandIndexEnd
                          {
                            OFFSET -2.770001 3e-06 8e-06
                            CHANNELS 3 Zrotation Yrotation Xrotation
                          }
                        }
                      }
                    }
                  }
                  JOINT RightHandMiddle1
                  {
                    OFFSET -3.168223 -0.944764 0.411762
                    CHANNELS 3 Zrotation Yrotation Xrotation
                    JOINT RightHandMiddle2
                    {
                      OFFSET -6.266691 -1e-06 -4e-06
                      CHANNELS 3 Zrotation Yrotation Xrotation
                      JOINT RightHandMiddle3
                      {
                        OFFSET -4.348901 0.0 0.0
                        CHANNELS 3 Zrotation Yrotation Xrotation
                        JOINT RightHandMiddle4
                        {
                          OFFSET -3.00024 2e-06 -4e-06
                          CHANNELS 3 Zrotation Yrotation Xrotation
                          JOINT RightHandMiddleEnd
                          {
                            OFFSET -2.321477 -4e-06 -4e-06
                            CHANNELS 3 Zrotation Yrotation Xrotation
                          }
                        }
                      }
                    }
                  }
                  JOINT RightHandRing1
                  {
                    OFFSET -2.885654 0.293261 -0.119232
                    CHANNELS 3 Zrotation Yrotation Xrotation
                    JOINT RightHandRing2
                    {
                      OFFSET -6.032835 -1e-06 -4e-06
                      CHANNELS 3 Zrotation Yrotation Xrotation
                      JOINT RightHandRing3
                      {
                        OFFSET -4.33881 0.0 -4e-06
                        CHANNELS 3 Zrotation Yrotation Xrotation
                        JOINT RightHandRing4
                        {
                          OFFSET -2.654903 -4e-06 -4e-06
                          CHANNELS 3 Zrotation Yrotation Xrotation
                          JOINT RightHandRingEnd
                          {
                            OFFSET -1.935122 0.0 4e-06
                            CHANNELS 3 Zrotation Yrotation Xrotation
                          }
                        }
                      }
                    }
                  }
                  JOINT RightHandPinky1
                  {
                    OFFSET -2.866241 1.503904 -0.60527
                    CHANNELS 3 Zrotation Yrotation Xrotation
                    JOINT RightHandPinky2
                    {
                      OFFSET -5.553177 -2e-06 0.0
                      CHANNELS 3 Zrotation Yrotation Xrotation
                      JOINT RightHandPinky3
                      {
                        OFFSET -3.062664 -1e-06 -4e-06
                        CHANNELS 3 Zrotation Yrotation Xrotation
                        JOINT RightHandPinky4
                        {
                          OFFSET -1.546529 2e-06 4e-06
                          CHANNELS 3 Zrotation Yrotation Xrotation
                          JOINT RightHandPinkyEnd
                          {
                            OFFSET -1.952341 0.0 -4e-06
                            CHANNELS 3 Zrotation Yrotation Xrotation
                          }
                        }
                      }
                    }
                  }
                }
              }
            }
          }
        }
      }
    }
    JOINT LeftLeg
    {
      OFFSET -8.443107 2.567604 10.043214
      CHANNELS 3 Zrotation Yrotation Xrotation
      JOINT LeftShin
      {
        OFFSET 43.229198 1e-06 -1e-06
        CHANNELS 3 Zrotation Yrotation Xrotation
        JOINT LeftFoot
        {
          OFFSET 42.298611 1e-06 1e-06
          CHANNELS 3 Zrotation Yrotation Xrotation
          JOINT LeftToeBase
          {
            OFFSET 14.165858 1e-06 0.0
            CHANNELS 3 Zrotation Yrotation Xrotation
            JOINT LeftToeEnd
            {
              OFFSET 6.7141 -0.234461 0.0
              CHANNELS 3 Zrotation Yrotation Xrotation
            }
          }
        }
      }
    }
    JOINT RightLeg
    {
      OFFSET -8.303923 2.592729 -10.047278
      CHANNELS 3 Zrotation Yrotation Xrotation
      JOINT RightShin
      {
        OFFSET -43.369682 0.0 1e-06
        CHANNELS 3 Zrotation Yrotation Xrotation
        JOINT RightFoot
        {
          OFFSET -42.260784 4e-06 2e-06
          CHANNELS 3 Zrotation Yrotation Xrotation
          JOINT RightToeBase
          {
            OFFSET -14.222245 -2e-06 -1e-06
            CHANNELS 3 Zrotation Yrotation Xrotation
            JOINT RightToeEnd
            {
              OFFSET -6.660062 0.232574 -2e-06
              CHANNELS 3 Zrotation Yrotation Xrotation
            }
          }
        }
      }
    }
  }
}
MOTION
Frames: 4
Frame Time: 0.03333333333333333
0.0 0.0 0.0 0.0 -0.0 0.0 -10.290303 20.972324 145.773712 5.988649 -83.879387 167.893448 -3.589834 0.953932 0.792157 -10.993809 0.179726 2.242465 14.594304 -1.28138 2.191903 7.233489 -1.463417 3.234115 -2.167951 0.298322 -2.976653 -11.987064 6.939312 -2.964897 6e-06 -0.0 0.0 -0.261887 -0.034104 0.023033 -0.42464 0.369985 -0.004021 -0.271399 -0.447108 0.052393 -55.158966 -62.217445 62.728992 95.504837 -13.23878 -55.310673 129.114655 -1.164624 0.002557 -17.83526 20.451355 80.133965 17.636633 -26.322737 52.411213 -19.46666 -14.395596 29.410393 -1e-06 -8.774823 -3e-06 16.316111 -17.970911 6.758553 -0.609778 -1.795653 -3.889328 -4.80709 -11.046815 -2.937852 3e-06 -20.976021 0.0 -5.019972 -25.033566 -4.031883 5e-06 1e-06 0.0 -10.634535 -5.686973 -3.565588 10.573272 -17.922953 -3.1139 2e-06 -13.821212 1e-06 -0.501778 -31.181511 -4.02702 -10.738633 -60.055496 7.404727 -13.982714 -7.150199 -2.875043 13.77273 -8.401495 -3.218242 0.347733 -34.211555 0.771655 -0.963029 -17.733372 2.62102 -0.0 -1e-06 1e-06 -17.346422 -20.095224 -4.201784 21.757561 -1.638376 3.866429 2e-06 -6.338824 1e-06 -1.697592 -22.591751 -6.194007 -1e-06 -4e-06 -3e-06 157.986603 -71.859825 27.250219 47.189163 11.867274 -93.688736 85.429657 -0.072949 0.262317 8.541413 31.530739 23.24691 22.182114 -20.375902 49.933327 -16.701818 -16.743534 28.476542 -4e-06 -12.690605 1e-06 15.636342 -16.896025 2.020958 -0.105919 -1.513857 -4.275882 -5.039042 -5.612873 -2.953555 5e-06 -11.020525 -1e-06 -6.1113 -15.895336 -3.840472 -0.0 0.0 -1e-06 -10.283371 -5.680288 -4.34184 11.028294 -11.302409 -2.372633 -1.384269 -14.238584 -6.320124 -0.625438 -26.924196 -3.827601 -4.051886 -49.109203 -3.969503 -13.708527 -7.363479 -3.720937 18.141157 -14.052741 -3.242678 7e-06 -18.787271 -2e-06 -0.429712 -8.456045 2.555503 2e-06 -1e-06 -0.0 -15.923536 -20.094484 -5.473586 30.419222 -7.190826 1.735921 0.0 -8.162927 -2e-06 -1.861905 -22.861475 -6.167943 1e-06 -5e-06 -0.0 172.766174 -32.78619 -86.941277 36.826077 -23.018642 37.005192 -78.071136 -3.656711 -8.142415 -10.22402 1.407774 2.80922 -1.0 -1e-06 -1e-06 -25.998083 -2.370458 -74.057236 9.660805 -57.983334 51.746811 -117.384163 23.546516 -8.023826 -34.056515 0.895633 1.38918 -1.000004 0.0 1e-06 
0.0 0.0 0.0 0.0 -0.0 0.0 -12.253041 21.269279 147.370071 5.575929 -83.239746 171.643936 -3.421954 -0.291849 0.72234 -10.833825 0.011947 1.693246 14.577539 -2.084398 1.417468 6.921364 0.39502 3.478141 -2.1282 0.281983 -3.620787 -11.688976 6.401324 -4.029111 6e-06 0.0 -0.0 -0.276 0.011875 0.019318 -0.426548 0.413116 -0.004589 -0.318545 -0.397397 0.04589 -53.029716 -63.350475 60.532558 95.315681 -12.096702 -53.114662 128.740158 -1.239128 -0.016052 -17.744202 20.19364 81.580185 17.63662 -26.32272 52.41119 -19.46666 -14.395594 29.410385 -0.0 -8.774821 -2e-06 16.126856 -17.95175 6.879781 -0.609777 -1.795654 -3.889327 -4.807089 -11.046811 -2.937851 7e-06 -20.976017 -3e-06 -5.019967 -25.03356 -4.031883 5e-06 1e-06 0.0 -10.634531 -5.686971 -3.565588 10.573271 -17.922951 -3.113903 3e-06 -13.821209 -0.0 -0.501772 -31.181505 -4.02702 -10.736124 -59.934849 7.404563 -13.982712 -7.150198 -2.875041 13.772729 -8.401491 -3.218243 0.347736 -34.211555 0.771649 -0.963027 -17.733372 2.621017 -1e-06 1e-06 -0.0 -17.346416 -20.095217 -4.201784 21.757557 -1.638374 3.866427 1e-06 -6.338821 1e-06 -1.697587 -22.591743 -6.19401 -2e-06 -3e-06 -3e-06 152.843506 -71.740807 32.658695 47.38596 8.922833 -93.742645 88.621391 0.079947 0.168081 8.003251 29.97492 26.230579 22.182119 -20.375895 49.933319 -16.701817 -16.74353 28.476534 -2e-06 -12.690604 -0.0 15.904485 -16.896482 1.852758 -0.10592 -1.513858 -4.275882 -5.039042 -5.612873 -2.953559 5e-06 -11.020527 -1e-06 -6.111302 -15.895338 -3.840471 1e-06 -2e-06 -0.0 -10.283373 -5.680292 -4.341837 11.028297 -11.302407 -2.372633 -1.38427 -14.238585 -6.320121 -0.625439 -26.924194 -3.827603 -4.085837 -49.149609 -3.984051 -13.708527 -7.363479 -3.720938 18.141155 -14.052742 -3.242676 3e-06 -18.787275 -3e-06 -0.429709 -8.456047 2.555503 1e-06 -0.0 -0.0 -15.923539 -20.09449 -5.473584 30.419218 -7.190826 1.735926 -1e-06 -8.162927 -1e-06 -1.861904 -22.861475 -6.167945 2e-06 -5e-06 -3e-06 166.769623 -36.511532 -76.157028 55.262428 -23.740011 24.793299 -84.407181 -4.497952 -6.176145 -10.939889 1.474183 2.620265 -1.0 -0.0 -0.0 -30.080008 -2.133204 -94.609222 -28.812597 -53.740902 92.553955 -116.86116 20.414988 -6.970246 -35.200546 0.938241 1.452439 -1.000006 -1e-06 -1e-06 
0.0 0.0 0.0 0.0 -0.0 0.0 -14.15525 21.483208 148.955276 3.874354 -82.720795 176.588669 -3.269456 -1.387952 0.645601 -10.723287 -0.190817 1.143619 14.593227 -2.893767 0.609215 6.620438 2.095366 3.671435 -2.088326 0.188322 -4.205205 -11.650827 6.028667 -5.073225 6e-06 0.0 -0.0 -0.294954 0.031601 0.017643 -0.443936 0.434785 -0.00973 -0.361773 -0.380931 0.048961 -50.876724 -64.275894 58.336666 95.219009 -10.9329 -51.222527 128.39946 -1.373491 -0.032955 -17.744177 19.920277 82.643333 17.636623 -26.322718 52.411171 -19.46666 -14.395594 29.410378 -2e-06 -8.774821 -2e-06 15.954885 -17.957296 7.031315 -0.609774 -1.795653 -3.889327 -4.807089 -11.046807 -2.93785 6e-06 -20.976006 -1e-06 -5.019969 -25.033552 -4.031881 6e-06 -0.0 -0.0 -10.634531 -5.68697 -3.565586 10.573271 -17.922945 -3.113899 2e-06 -13.821203 1e-06 -0.501777 -31.181498 -4.027015 -10.896546 -59.855919 7.541489 -13.98271 -7.150196 -2.875041 13.772726 -8.40149 -3.218241 0.347736 -34.211536 0.771653 -0.963027 -17.733362 2.621017 -1e-06 0.0 0.0 -17.346413 -20.095211 -4.20178 21.757555 -1.638375 3.866426 2e-06 -6.338821 1e-06 -1.697589 -22.591743 -6.194006 -2e-06 -5e-06 -2e-06 147.417969 -71.434517 38.608559 47.868629 6.262821 -93.702232 91.857376 0.022007 0.171201 6.932709 28.361937 29.16626 22.182117 -20.375889 49.933319 -16.701811 -16.743528 28.476528 -2e-06 -12.690601 -0.0 16.216719 -16.987427 1.727592 -0.105921 -1.513856 -4.275883 -5.039041 -5.612872 -2.953555 7e-06 -11.020523 -3e-06 -6.111297 -15.89533 -3.840471 2e-06 -1e-06 -2e-06 -10.283367 -5.680287 -4.341841 11.028292 -11.302402 -2.372633 -1.384268 -14.238579 -6.320121 -0.625436 -26.924183 -3.827602 -4.123816 -49.201485 -4.10726 -13.708522 -7.363476 -3.720939 18.14115 -14.052736 -3.242676 6e-06 -18.787266 -4e-06 -0.42971 -8.456041 2.555502 1e-06 -0.0 -0.0 -15.923532 -20.094482 -5.473587 30.41921 -7.190824 1.735924 -1e-06 -8.162922 -0.0 -1.8619 -22.861469 -6.167943 -1e-06 -3e-06 -2e-06 160.400589 -39.376221 -67.582382 72.13662 -22.867081 16.333815 -89.565445 -5.647603 -3.955782 -11.512307 1.521383 2.459245 -1.0 0.0 -0.0 -32.498356 -7.077086 -121.959122 -50.291122 -34.581863 124.310425 -115.899391 15.38493 -6.13454 -35.591705 0.976789 1.509706 -1.000003 1e-06 -0.0 
0.0 0.0 0.0 0.0 -0.0 0.0 -15.977785 21.549957 150.435059 1.895152 -82.302414 -178.175232 -3.131414 -2.360228 0.560474 -10.626143 -0.450273 0.575155 14.700935 -3.705159 -0.297354 6.425245 3.684486 3.848969 -2.05938 0.001168 -4.751655 -11.695168 5.753846 -6.10155 6e-06 -0.0 0.0 -0.310439 0.034441 0.019492 -0.482385 0.450328 -0.01315 -0.404835 -0.393111 0.056785 -48.832405 -65.053619 56.362316 95.19352 -9.602159 -49.470722 128.007492 -1.434918 -0.073376 -17.753399 19.645899 83.435722 17.636623 -26.322737 52.411201 -19.466661 -14.395596 29.410395 -0.0 -8.774822 -1e-06 15.847047 -17.950823 7.144714 -0.609775 -1.795653 -3.889328 -4.807089 -11.046814 -2.93785 2e-06 -20.976021 1e-06 -5.019973 -25.033562 -4.031879 6e-06 0.0 -0.0 -10.634533 -5.686972 -3.565587 10.573272 -17.922951 -3.113901 0.0 -13.82121 2e-06 -0.501778 -31.181511 -4.027017 -11.194986 -59.82056 7.796996 -13.982714 -7.150198 -2.875041 13.77273 -8.401491 -3.218242 0.347729 -34.211555 0.771657 -0.963029 -17.73337 2.621021 -0.0 -1e-06 -0.0 -17.346418 -20.095221 -4.201779 21.757557 -1.638374 3.866426 0.0 -6.338823 2e-06 -1.697592 -22.591751 -6.194006 -0.0 -5e-06 -3e-06 141.85141 -70.890137 44.879581 48.811546 3.947639 -93.8395 94.871475 -0.243097 0.147401 5.521625 26.915806 32.056709 22.182106 -20.375895 49.933315 -16.701807 -16.743525 28.47653 -2e-06 -12.690597 -0.0 16.532669 -17.118649 1.658219 -0.10592 -1.513857 -4.275879 -5.03904 -5.612872 -2.953557 5e-06 -11.020519 -3e-06 -6.111297 -15.895328 -3.840471 1e-06 0.0 -0.0 -10.28337 -5.680289 -4.341838 11.028292 -11.302402 -2.372633 -1.384268 -14.238577 -6.32012 -0.625438 -26.924183 -3.827601 -4.164521 -49.248787 -4.255586 -13.708523 -7.363475 -3.720937 18.141148 -14.052738 -3.242676 6e-06 -18.787268 -1e-06 -0.429712 -8.456041 2.555504 2e-06 1e-06 1e-06 -15.923532 -20.094482 -5.473582 30.419205 -7.190822 1.735925 -0.0 -8.162922 0.0 -1.861902 -22.861464 -6.167942 -0.0 -4e-06 -0.0 153.819916 -41.443783 -60.131599 86.672943 -20.960484 10.628293 -93.379204 -6.808771 -1.5776 -11.873212 1.564518 2.363079 -0.999998 1e-06 1e-06 -29.408617 -11.923524 -152.101868 -54.19809 -12.409218 150.023163 -114.702812 8.834174 -5.295488 -35.313602 0.994161 1.551136 -1.000003 -0.0 -1e-06 
